<svg width="163" height="161" viewBox="0 0 163 161" fill="none" xmlns="http://www.w3.org/2000/svg">
<path fill-rule="evenodd" clip-rule="evenodd" d="M35.3238 0H33.6491L32.4649 1.19461L14.4009 19.4176L1.23144 32.2744L0 33.4766V35.2053V59.4627V61.1212L1.14731 62.309L9.23315 70.6807L9.23347 70.681L33.2788 95.582L34.4691 96.8147H36.1749H46.389H48.0946L49.2848 95.5824L53.4112 91.3101V123.219L57.4543 128.156L61.4974 123.219V87.3693V85.6799L60.3132 84.4853L57.3341 81.4799L54.4378 78.5582L51.5794 81.5176L44.6835 88.6573H37.8807L17.7979 67.8599L36.8337 48.4909L70.4347 82.1962V147.905V149.595L71.6189 150.789L78.6411 157.873L81.5 161L84.3589 157.873L91.3811 150.789L92.5653 149.595V147.905V82.1962L126.166 48.4909L145.202 67.8599L125.119 88.6573H118.317L111.421 81.5176L108.562 78.5582L105.666 81.4799L102.687 84.4853L101.503 85.6799V87.3693V123.219L105.546 128.156L109.589 123.219V91.3101L113.715 95.5824L114.905 96.8147H116.611H126.825H128.531L129.721 95.582L153.767 70.681L153.767 70.6807L161.853 62.309L163 61.1212V59.4627V35.2053V33.4766L161.769 32.2744L148.599 19.4176L130.535 1.19461L129.351 0H127.676H114.27H112.596L111.411 1.19461L105.573 7.084H81.5H57.4267L51.5887 1.19461L50.4045 0H48.7298H35.3238ZM81.5 15.2413H55.752H54.0773L52.8931 14.0467L47.0551 8.15733H36.9985L22.9086 22.3712L39.6911 39.8536L77.3286 77.6078L78.5209 78.8038V80.5V146.216L81.5 149.221L84.4791 146.216V80.5V78.8038L85.6714 77.6078L123.309 39.8536L140.091 22.3712L126.002 8.15733H115.945L110.107 14.0467L108.923 15.2413H107.248H81.5ZM31.1529 42.6851L12.1543 62.0161L8.08616 57.8042V36.9341L17.1436 28.0917L31.1529 42.6851ZM51.4961 24.472H49.8214L48.6372 25.6666L46.5093 27.8133L43.6504 30.6973L46.5093 33.5814L78.6411 65.9961L81.5 74.704L84.3589 65.9961L116.491 33.5814L119.35 30.6973L116.491 27.8133L114.363 25.6666L113.179 24.472H111.504H81.5H51.4961ZM81.5 32.6293H57.0011L81.5 57.3439L105.999 32.6293H81.5ZM131.847 42.6851L150.846 62.0161L154.914 57.8042V36.9341L145.856 28.0917L131.847 42.6851Z" fill="white"/>
</svg>
