<svg width="52" height="52" viewBox="0 0 52 52" fill="none" xmlns="http://www.w3.org/2000/svg">
<path fill-rule="evenodd" clip-rule="evenodd" d="M11.2689 0H10.7347L10.3569 0.385838L4.59414 6.27153L0.392851 10.424L0 10.8123V11.3707V19.2053V19.741L0.366012 20.1247L2.94554 22.8285L10.6166 30.8712L10.9963 31.2693H11.5405H14.799H15.3431L15.7228 30.8713L17.0392 29.4915V39.7973L18.329 41.392L19.6188 39.7973V28.2187V27.673L19.241 27.2872L18.2906 26.3165L17.3667 25.3728L16.4548 26.3287L14.2549 28.6347H12.0847L5.67785 21.9175L11.7506 15.6617L22.47 26.5478V47.7707V48.3163L22.8478 48.7022L25.088 50.9902L26 52L26.912 50.9902L29.1522 48.7022L29.53 48.3163V47.7707V26.5478L40.2494 15.6617L46.3221 21.9175L39.9153 28.6347H37.7451L35.5452 26.3287L34.6333 25.3728L33.7094 26.3165L32.759 27.2872L32.3812 27.673V28.2187V39.7973L33.671 41.392L34.9608 39.7973V29.4915L36.2772 30.8713L36.6569 31.2693H37.201H40.4595H41.0037L41.3834 30.8712L49.0544 22.8287L51.634 20.1247L52 19.741V19.2053V11.3707V10.8123L51.6072 10.424L47.4059 6.27153L41.6431 0.385838L41.2653 0H40.7311H36.4543H35.9201L35.5423 0.385838L33.6798 2.288H26H18.3202L16.4577 0.385838L16.08 0H15.5457H11.2689ZM26 4.92267H17.7859H17.2516L16.8739 4.53683L15.0114 2.63467H11.8032L7.30826 7.22549L12.6622 12.872L24.6692 25.0659L25.0496 25.4522V26V47.225L26 48.1957L26.9504 47.225V26V25.4522L27.3308 25.0659L39.3378 12.872L44.6917 7.22549L40.1968 2.63467H36.9886L35.1261 4.53683L34.7484 4.92267H34.2141H26ZM9.93834 13.7865L3.87745 20.0301L2.57963 18.6697V11.929L5.46912 9.07309L9.93834 13.7865ZM16.4282 7.904H15.8939L15.5162 8.28984L14.8373 8.98317L13.9253 9.91467L14.8373 10.8462L25.088 21.3155L26 24.128L26.912 21.3155L37.1627 10.8462L38.0747 9.91467L37.1627 8.98317L36.4838 8.28984L36.1061 7.904H35.5718H26H16.4282ZM26 10.5387H18.1844L26 18.521L33.8156 10.5387H26ZM42.0617 13.7865L48.1226 20.0301L49.4204 18.6697V11.929L46.5309 9.07309L42.0617 13.7865Z"/>
</svg>
