<svg width="23" height="22" viewBox="0 0 23 22" fill="none" xmlns="http://www.w3.org/2000/svg">
<path d="M17.9849 13.5162L22.597 9.54778C23.373 8.88102 22.9602 7.60867 21.9403 7.5251L15.878 7.0279C15.6675 7.0108 15.4658 6.93602 15.2949 6.81179C15.1241 6.68755 14.9908 6.51865 14.9095 6.3236L12.5629 0.708544C12.1683 -0.236181 10.8319 -0.236181 10.4373 0.708544L8.09064 6.3236C8.00942 6.51865 7.87608 6.68755 7.70526 6.81179C7.53443 6.93602 7.33271 7.0108 7.12222 7.0279L1.05929 7.5251C0.0400263 7.60867 -0.372764 8.88102 0.402579 9.54778L3.20374 11.958C3.46201 12.1807 3.76336 12.3477 4.08899 12.4486C4.41463 12.5496 4.75756 12.5824 5.0964 12.5449L11.3681 11.8575C11.8838 11.8012 12.0975 12.4994 11.6387 12.7417L6.00914 15.7151C5.69492 15.8807 5.41987 16.1118 5.20258 16.3928C4.98529 16.6739 4.83081 16.9983 4.74959 17.3442L3.98453 20.578C3.74908 21.5736 4.83069 22.3603 5.70409 21.8286L10.9015 18.6656C11.2689 18.4415 11.7307 18.4415 12.0987 18.6656L17.2955 21.8286C18.1695 22.3603 19.2505 21.5742 19.0157 20.578L17.6151 14.6553C17.5663 14.4498 17.5749 14.2348 17.6402 14.0338C17.7054 13.8329 17.8247 13.6538 17.9849 13.5162Z" fill="#FEAC3E"/>
</svg>
